<svg xmlns="http://www.w3.org/2000/svg" viewBox="0 0 384 512" fill="currentColor">
  <path d="M192 0C152 0 125.7 42.4 146.5 75.7L192 144 69.3 266.7c-9.4 9.4-9.4 24.6 0 33.9s24.6 9.4 33.9 0L192 212l0 156L146.5 436.3C125.7 469.6 152 512 192 512l64 0c6.4 0 12.5-2.5 17-7l80-80c9.4-9.4 9.4-24.6 0-33.9s-24.6-9.4-33.9 0L256 454.1l0-166.1 63-63c9.4-9.4 9.4-24.6 0-33.9s-24.6-9.4-33.9 0l-29 29L192 212l0-156 63 63c9.4 9.4 24.6 9.4 33.9 0s9.4-24.6 0-33.9l-63-63L192 0zm64 281l0 135-64 0 64-135zM192 96l0 135-64-64L192 96z"/>
</svg>
