<svg xmlns="http://www.w3.org/2000/svg" viewBox="0 0 937.5 937.5" fill="currentColor">
  <g transform="translate(0 -114.862)">
    <circle cx="-739.798" cy="114.143" r="431.25" transform="rotate(-120)"/>
    <path fill="none" stroke="transparent" stroke-width="35" stroke-linecap="round" d="M-427.771-63.976a360.3 360.3 0 0 1 0 360.297M-472.58-20.016a299.98 299.98 0 0 1 0 272.378m-47.884-233.873a240.17 240.17 0 0 1 0 195.368" transform="rotate(-120)"/>
    <path d="m580.047 420.343-114.36 98.912H357.453v127.287h106.594l116 100.34z" stroke="white" stroke-width="33.333" stroke-linecap="round" stroke-linejoin="round"/>
    <path fill="none" stroke="currentColor" stroke-width="35" stroke-linecap="round" d="M780.777 405.493a360.3 360.3 0 0 1 0 360.297m-44.741-316.337a299.98 299.98 0 0 1 0 272.378m-47.884-233.873a240.17 240.17 0 0 1 0 195.368"/>
    <path fill="none" stroke="currentColor" stroke-width="35" stroke-linecap="round" d="M583.007-875.875a360.3 360.3 0 0 1 0 360.297m-44.741-316.337a299.98 299.98 0 0 1 0 272.378M490.383-793.41a240.17 240.17 0 0 1 0 195.368" transform="rotate(120)"/>
  </g>
</svg>
