<svg xmlns="http://www.w3.org/2000/svg" viewBox="0 0 512 512" fill="currentColor">
  <path d="M232 64c-8.8 0-16 7.2-16 16l0 352c0 8.8 7.2 16 16 16s16-7.2 16-16l0-352c0-8.8-7.2-16-16-16zm-80 96c-8.8 0-16 7.2-16 16l0 256c0 8.8 7.2 16 16 16s16-7.2 16-16l0-256c0-8.8-7.2-16-16-16zm160 0c-8.8 0-16 7.2-16 16l0 256c0 8.8 7.2 16 16 16s16-7.2 16-16l0-256c0-8.8-7.2-16-16-16zm-240 64c-8.8 0-16 7.2-16 16l0 128c0 8.8 7.2 16 16 16s16-7.2 16-16l0-128c0-8.8-7.2-16-16-16zm320 0c-8.8 0-16 7.2-16 16l0 128c0 8.8 7.2 16 16 16s16-7.2 16-16l0-128c0-8.8-7.2-16-16-16z"/>
</svg>
